<svg id="Layer_1" data-name="Layer 1" xmlns="http://www.w3.org/2000/svg" viewBox="0 0 512 512"><defs><style>.cls-1{fill:#e2f8f6;}</style></defs><path class="cls-1" d="M388.66,265.2H318.49c1.41-20.63,15.16-33.57,35.79-33.57C375.92,231.63,386.74,244.27,388.66,265.2Z"/><path class="cls-1" d="M358.4,0H153.6A153.59,153.59,0,0,0,0,153.6V358.4A153.59,153.59,0,0,0,153.6,512H358.4A153.65,153.65,0,0,0,512,358.4V153.6A153.65,153.65,0,0,0,358.4,0ZM310.48,153.91h89v21.6h-89ZM184.12,365.36H77.72V146H181.15c37.58,0,70.14,10.55,70.14,54.27,0,22-10.24,32.87-29.9,42.3,26.93,7.57,39.94,31.43,39.94,59C261.33,346.11,224,365.16,184.12,365.36ZM434,292.86H319.39c0,25.4,13.41,40.35,39,40.35,13.21,0,30.31-7.07,34.51-20.69h38.5C419.53,349,395,366,357.07,366c-50.07,0-81.31-33.9-81.31-83.46,0-47.72,32.77-84.07,81.31-84.07,49.66,0,77.21,39.22,77.21,86.12C434.28,287.33,434.07,290.2,434,292.86ZM178.48,267.47H126v60.41h51.51c19.66,0,35.64-7,35.64-29C213.1,276.38,199.78,267.57,178.48,267.47Zm25.81-62.67c0-20.17-15.57-25-33-25H126.06V231H174.9C192.1,231,204.29,223.44,204.29,204.8Z"/></svg>