<svg id="Layer_1" data-name="Layer 1" xmlns="http://www.w3.org/2000/svg" viewBox="0 0 512 512"><defs><style>.cls-1{fill:#e2f8f6;}</style></defs><path class="cls-1" d="M512,258.3c0,114.51-69.91,212.38-173.23,246.78-13.14,2.37-17.76-5.87-17.76-12.59,0-8.38.28-51.45.28-86.26,0-24.33-8.11-39.71-17.61-48,57.74-6.43,118.56-14.4,118.56-114.09,0-28.24-10.07-42.5-26.71-60.82,2.8-6.71,11.47-34.25-2.65-70-21.53-6.85-71.17,27.82-71.17,27.82a243.27,243.27,0,0,0-129.75,0s-49.63-34.53-71.16-27.82c-14.26,35.65-5.45,63.33-2.8,70-16.49,18.18-24.32,32.44-24.32,60.82,0,99.41,58.3,107.66,115.9,114.09-7.41,6.85-14.12,18.32-16.5,34.82-14.68,6.85-52.57,18.31-75.22-21.54C103.74,347,78,344.85,78,344.85c-25.31-.28-1.68,15.94-1.68,15.94C93.26,368.48,105,398.54,105,398.54c15.24,46.28,87.52,30.76,87.52,30.76,0,21.67.28,57,.28,63.47,0,6.71-4.61,14.82-17.89,12.45C72,470.68,0,372.81,0,258.3,0,115,109.47,6.36,252.64,6.36S512,115,512,258.3Z"/></svg>