<svg id="Layer_1" data-name="Layer 1" xmlns="http://www.w3.org/2000/svg" viewBox="0 0 512 512"><defs><style>.cls-1{fill:#e2f8f6;}</style></defs><path class="cls-1" d="M247.4,178.72a90,90,0,0,0-89.87,90c0,49.64,40.44,90.07,89.87,90.07a90,90,0,0,0,0-180Z"/><path class="cls-1" d="M452.1,13.52A113.08,113.08,0,0,0,398.34,0H113.56A113.53,113.53,0,0,0,0,113.56V398.44A113.56,113.56,0,0,0,113.56,512H398.34A113.64,113.64,0,0,0,512,398.44V113.56A113.6,113.6,0,0,0,452.1,13.52ZM247.4,407A138.29,138.29,0,1,1,385.89,268.68,138.09,138.09,0,0,1,247.4,407ZM390.63,159.62a32.3,32.3,0,1,1,32.25-32.34A32.13,32.13,0,0,1,390.63,159.62Z"/></svg>