<svg id="Layer_1" data-name="Layer 1" xmlns="http://www.w3.org/2000/svg" viewBox="0 0 512 512"><defs><style>.cls-1{fill:#e2f8f6;}</style></defs><path class="cls-1" d="M398.44,0H113.66A113.64,113.64,0,0,0,0,113.56V398.44A113.64,113.64,0,0,0,113.66,512H398.44A113.56,113.56,0,0,0,512,398.44V113.56A113.56,113.56,0,0,0,398.44,0ZM173.75,404.58H112V206h61.74ZM142.83,178.89a35.74,35.74,0,1,1,35.84-35.74A35.68,35.68,0,0,1,142.83,178.89Zm262,225.69H343.23V308c0-23-.52-52.63-32.06-52.63-32.15,0-37.17,25-37.17,51v98.2H212.46V206h59.09v27.13h.92c8.29-15.56,28.46-32,58.36-32,62.37,0,74,41.17,74,94.62Z"/></svg>